<svg width="455" height="147" viewBox="0 0 455 147" fill="none" xmlns="http://www.w3.org/2000/svg">
<path d="M100.057 89.1951C97.2688 89.1951 94.9715 89.1951 92.391 89.1951C92.391 59.7278 92.391 30.6741 92.391 0.897018C99.8556 0.897018 107.277 0.771591 114.691 0.936599C120.656 1.06932 126.747 0.880386 132.545 2.02995C142.783 4.05992 148.77 10.6741 149.783 19.5763C150.948 29.8104 147.534 35.8785 137.584 41.3093C137.179 41.5306 136.878 41.9438 136.216 42.5577C145.107 44.6673 150.683 50.0316 153.014 58.5349C155.088 66.0979 153.779 73.1905 148.678 79.1676C142.537 86.3631 134.154 88.9188 125.022 89.1481C116.868 89.3528 108.706 89.1937 100.057 89.1951ZM140.411 59.4813C138.993 53.383 134.793 49.7507 128.987 49.0309C120.989 48.0393 112.863 48.0804 104.574 47.6683C104.574 58.5453 104.574 68.4467 104.574 78.182C112.325 78.182 119.835 78.8545 127.174 78.0199C137.464 76.8496 141.691 70.6758 140.411 59.4813ZM104.276 35.1877C104.664 35.8436 105.073 37.0827 105.436 37.0694C113.502 36.7735 121.702 37.1076 129.576 35.6714C135.177 34.6497 137.558 28.8599 136.935 22.575C136.401 17.1926 132.758 12.4046 127.379 11.9748C119.868 11.3746 112.273 11.8235 104.26 11.8235C104.26 19.3731 104.26 26.8056 104.276 35.1877Z" fill="#535555"/>
<path d="M248.008 88.9664C244.559 88.9664 241.109 88.9664 237.406 88.9664C237.406 59.6152 237.406 30.5424 237.406 1.31543C250.6 1.31543 263.622 0.382847 276.445 1.57895C289.154 2.7645 296.265 11.8145 296.843 24.2664C297.372 35.6683 290.167 45.1342 278.43 48.453C277.647 48.6745 276.856 48.8712 275.381 49.2613C283.58 62.4712 291.584 75.3668 300.156 89.1769C294.842 89.1769 290.571 89.4189 286.36 89.0234C285.161 88.9108 283.85 87.113 283.079 85.8009C277.256 75.8922 271.265 66.0638 265.948 55.885C263.563 51.3173 260.673 49.5501 255.771 50.2571C253.85 50.5342 251.855 50.3024 249.261 50.3024C249.261 62.8556 249.261 74.9645 248.928 87.6331C248.309 88.3823 248.113 88.6402 248.008 88.9664ZM255.649 11.281C253.586 11.281 251.523 11.281 249.602 11.281C249.602 21.2408 249.602 30.3129 249.602 39.8111C255.201 39.8111 260.485 39.8873 265.765 39.7758C268.076 39.7271 270.405 39.4332 272.681 39.0109C280.042 37.6452 283.926 32.8919 283.907 25.4548C283.888 18.0186 280.097 13.2452 272.496 12.1558C267.265 11.406 261.908 11.5414 255.649 11.281Z" fill="#535555"/>
<path d="M212.88 49.7705C201.24 49.7704 190.084 49.7704 178.504 49.7704C178.504 59.0915 178.504 68.1422 178.504 77.8431C193.915 77.8431 209.455 77.8431 225.207 77.8431C225.207 81.9171 225.207 85.3458 225.207 88.9854C205.502 88.9854 186.059 88.9854 166.287 88.9854C166.287 59.7549 166.287 30.6857 166.287 1.25555C185.044 1.25555 203.767 1.25555 222.806 1.25555C222.806 4.67709 222.806 8.08734 222.806 12.0638C208.111 12.0638 193.383 12.0638 178.373 12.0638C178.373 21.011 178.373 29.3996 178.373 38.281C192.184 38.281 205.775 38.281 219.651 38.281C219.651 42.1841 219.651 45.6074 219.651 49.7706C217.563 49.7706 215.465 49.7706 212.88 49.7705Z" fill="#535555"/>
<path d="M433.48 10.4491C437.071 0.299487 444.664 -0.426313 453.691 1.40108C453.159 2.40273 452.673 3.53258 452.007 4.54393C442.483 19.002 432.841 33.3837 423.489 47.9514C421.989 50.2873 421.124 53.4212 421.053 56.214C420.776 66.9984 420.941 77.794 420.941 88.889C416.842 88.889 413.136 88.889 408.95 88.889C408.95 77.8795 409.117 67.0935 408.836 56.3191C408.764 53.5246 407.871 50.3948 406.368 48.0525C397.019 33.4831 387.387 19.0951 377.856 4.64208C377.238 3.70418 376.682 2.72466 375.584 0.920978C380.689 0.920978 385.09 0.691242 389.438 1.06645C390.68 1.1736 392.072 2.84468 392.881 4.12358C399.292 14.2504 405.573 24.4589 411.909 34.6333C412.755 35.9914 413.682 37.299 414.995 39.2649C421.303 29.4234 427.288 20.0853 433.48 10.4491Z" fill="#535555"/>
<path d="M329.955 87.9891C329.87 64.6759 329.783 41.3628 329.699 18.0496C329.692 16.2611 329.698 14.4726 329.698 12.2291C320.123 12.2291 311.032 12.2291 301.657 12.2291C301.657 8.35678 301.657 4.9443 301.657 1.21295C324.398 1.21295 346.962 1.21295 369.909 1.21295C369.909 4.61276 369.909 8.01971 369.909 12.0283C360.883 12.0283 351.657 12.0283 341.865 12.0283C341.865 37.9959 341.865 63.3762 341.865 89.1592C338.16 89.1592 335.03 89.1592 331.332 88.8436C330.553 88.2616 330.283 88.082 329.955 87.9891Z" fill="#535555"/>
<path d="M12.1686 13.0128C12.1687 34.781 12.1687 56.0521 12.1687 77.8824C25.8169 77.8824 39.0329 77.8824 52.5288 77.8824C52.5288 81.8384 52.5288 85.2346 52.5288 88.9125C35.0906 88.9125 17.8621 88.9125 0.331665 88.9125C0.331665 59.7794 0.331665 30.7269 0.331665 1.28729C4.01765 1.28729 7.72971 1.28729 12.1686 1.28729C12.1686 4.99823 12.1686 8.75699 12.1686 13.0128Z" fill="#525454"/>
<path d="M77.8768 53C77.8767 65.4594 77.8767 77.4188 77.8767 89.6721C73.2347 89.6721 69.0035 89.6721 64.4674 89.6721C64.4674 60.0021 64.4674 30.443 64.4674 0.568695C68.8155 0.568695 73.0459 0.568695 77.8768 0.568695C77.8768 17.9726 77.8768 35.2363 77.8768 53Z" fill="#555757"/>
<path d="M64.9533 134.998C66.4633 138.539 67.8291 141.726 69.2914 145.139C64.682 146.68 61.6277 146.06 60.618 141.056C59.6368 136.193 56.7835 134.049 51.7411 135.01C50.4553 135.256 49.0704 135.167 47.7527 135.027C41.4245 134.355 35.9209 134.659 34.4093 142.734C33.8812 145.555 31.3859 146.167 28.1987 145.88C22.5027 145.365 16.7217 145.801 10.9761 145.825C7.5144 145.84 4.0526 145.828 0.311523 145.828C0.311523 131.271 0.311523 117.185 0.311523 102.514C1.95315 102.425 3.66892 102.333 5.92921 102.212C5.92921 114.841 5.92921 127.08 5.92921 139.059C12.6843 142.307 20.6858 136.973 27.2373 142.946C27.5771 142.303 28.4733 140.826 29.1687 139.259C34.0308 128.305 38.748 117.285 43.7911 106.416C44.5943 104.685 46.8495 102.474 48.3469 102.537C49.8948 102.603 51.9181 104.905 52.7284 106.686C56.9321 115.925 60.8146 125.31 64.9533 134.998ZM44.5854 118.077C43.0919 121.815 41.5983 125.553 40.0668 129.386C45.6759 129.386 50.5481 129.386 55.8564 129.386C53.257 122.991 50.8569 117.087 47.967 109.978C46.6046 113.234 45.7394 115.301 44.5854 118.077Z" fill="#F16A2B"/>
<path d="M275.045 120.001C275.045 128.655 275.045 136.809 275.045 145.397C273.137 145.397 271.462 145.397 269.388 145.397C269.388 134.52 269.388 123.742 269.388 112.963C269.037 112.841 268.686 112.72 268.336 112.598C267.663 114.096 266.949 115.576 266.326 117.093C262.843 125.56 259.469 134.075 255.827 142.473C255.23 143.848 253.616 145.284 252.221 145.606C251.475 145.779 249.776 143.812 249.22 142.507C245.006 132.608 240.968 122.635 235.985 112.822C235.985 123.634 235.985 134.446 235.985 145.57C233.879 145.682 232.284 145.767 230.297 145.873C230.297 131.364 230.297 117.138 230.297 102.905C237.992 101.122 238.361 101.304 241.351 108.396C244.954 116.942 248.555 125.49 252.573 135.026C256.579 125.49 260.195 116.945 263.761 108.379C266.62 101.511 266.593 101.5 275.045 102.806C275.045 108.296 275.045 113.899 275.045 120.001Z" fill="#F26C2E"/>
<path d="M121.545 125.999C121.546 117.884 121.546 110.269 121.546 102.875C127.02 101.066 130.043 102.844 132.749 107.16C138.977 117.089 145.729 126.689 153.16 136.123C153.16 125.075 153.16 114.026 153.16 102.607C155.293 102.607 156.986 102.607 158.941 102.607C158.941 116.902 158.941 130.989 158.941 145.267C154.493 146.63 151.302 145.912 148.586 141.518C143.251 132.89 137.333 124.621 131.629 116.222C130.651 114.782 129.538 113.432 127.515 112.316C127.515 123.337 127.515 134.358 127.515 145.595C125.283 145.595 123.681 145.595 121.545 145.595C121.545 139.091 121.545 132.795 121.545 125.999Z" fill="#F16A2C"/>
<path d="M320.89 144.971C320.691 130.672 320.691 116.745 320.691 102.373C326.855 102.373 332.637 102.085 338.377 102.449C344.923 102.864 348.777 106.573 349.654 112.443C350.511 118.174 347.767 122.748 341.862 125.418C341.274 125.684 340.667 125.908 339.525 126.372C343.444 132.713 347.229 138.839 351.19 145.25C346.329 146.71 343.253 145.799 341.245 141.282C339.633 137.656 337.125 134.435 335.413 130.844C333.6 127.04 331.071 125.703 326.502 127.37C326.502 133.279 326.502 139.342 326.502 145.936C324.258 145.69 322.674 145.517 320.89 144.971ZM343.164 116.135C344.386 108.447 338.907 106.39 326.647 108.471C326.647 112.67 326.647 116.876 326.647 121.826C332.575 120.639 339.072 123.774 343.164 116.135Z" fill="#F16B2D"/>
<path d="M284.209 120.001C284.209 114.024 284.209 108.546 284.209 102.637C293.516 102.637 302.57 102.637 312.104 102.637C312.104 104.073 312.104 105.738 312.104 107.964C304.925 107.964 297.849 107.964 290.607 107.964C290.607 112.27 290.607 116.021 290.607 120.372C297.423 120.372 304 120.372 310.812 120.372C310.812 122.575 310.812 124.179 310.812 126.475C304.1 126.475 297.404 126.475 290.549 126.475C290.549 131.249 290.549 135.332 290.549 139.932C298.215 139.932 305.632 139.932 313.433 139.932C313.551 141.997 313.641 143.569 313.752 145.505C303.828 145.505 294.302 145.505 284.209 145.505C284.209 137.035 284.209 128.768 284.209 120.001Z" fill="#F26E31"/>
<path d="M417.188 132.129C421.232 122.942 425.042 114.063 429.122 105.31C429.741 103.982 431.579 102.493 432.913 102.434C434.226 102.375 436.305 103.735 436.865 104.997C442.728 118.216 448.353 131.54 454.132 145.041C449.607 146.847 446.474 146.123 445.517 141.184C444.484 135.849 441.299 134.182 436.238 135.019C434.94 135.233 433.549 135.227 432.248 135.021C425.524 133.956 420.769 135.588 419.211 143.139C418.294 147.582 414.603 145.451 411.265 145.724C413.347 140.951 415.195 136.715 417.188 132.129ZM426.583 125.102C426.097 126.455 425.61 127.808 425.047 129.373C430.304 129.373 435.14 129.373 440.707 129.373C438.065 122.9 435.665 117.02 432.802 110.007C430.505 115.575 428.69 119.976 426.583 125.102Z" fill="#F16B2C"/>
<path d="M214.161 120.737C217.713 129.024 221.117 136.96 224.605 145.091C220.104 146.797 217.016 146.099 215.994 141.183C214.915 135.993 211.804 134.118 206.695 135.016C205.403 135.244 204.012 135.217 202.709 135.022C196.06 134.027 191.205 135.448 189.673 143.083C188.796 147.453 185.159 145.602 181.753 145.57C185.347 137.392 188.74 129.669 192.135 121.946C194.479 116.614 196.649 111.194 199.276 106.006C200.079 104.419 202.169 102.463 203.616 102.505C205.089 102.548 207.019 104.583 207.833 106.205C210.144 110.806 211.987 115.642 214.161 120.737ZM198.052 122.499C197.151 124.744 196.251 126.99 195.255 129.473C200.778 129.473 205.669 129.473 211.189 129.473C208.575 123.052 206.155 117.108 203.276 110.039C201.272 114.81 199.806 118.302 198.052 122.499Z" fill="#F16B2C"/>
<path d="M372.148 116.42C378.887 100.253 398.901 95.707 408.598 108.112C407.233 109.227 405.86 110.348 404.523 111.441C396.723 105.511 388.307 104.271 381.106 113.043C375.542 119.821 376.338 131.01 382.361 136.869C388.49 142.83 396.959 142.497 405.11 135.632C406.508 136.725 407.996 137.889 409.478 139.048C404.359 145.947 395.483 148.566 386.899 145.98C378.131 143.339 371.535 135.286 371.11 126.183C370.965 123.077 371.696 119.931 372.148 116.42Z" fill="#F26C2E"/>
<path d="M91.899 107.908C89.4495 107.908 87.4736 107.908 84.8645 107.908C84.8645 120.546 84.8645 132.906 84.8645 145.55C82.4898 145.55 80.7466 145.55 78.5527 145.55C78.5527 133.231 78.5527 120.972 78.5527 108.066C73.7559 108.066 69.3839 108.066 64.7279 108.066C64.7279 105.853 64.7279 104.293 64.7279 102.466C75.9128 102.466 86.8238 102.466 98.2104 102.466C98.3059 104.043 98.4007 105.607 98.5401 107.908C96.213 107.908 94.2928 107.908 91.899 107.908Z" fill="#F26F32"/>
<path d="M103.98 126C103.98 117.863 103.98 110.227 103.98 102.207C106.262 102.207 108.288 102.207 110.591 102.207C110.591 116.54 110.591 130.786 110.591 145.432C108.55 145.432 106.526 145.432 103.98 145.432C103.98 139.053 103.98 132.776 103.98 126Z" fill="#F26B2B"/>
<path d="M357.613 121C357.613 114.531 357.613 108.561 357.613 102.225C359.729 102.225 361.615 102.225 363.866 102.225C363.866 116.48 363.866 130.827 363.866 145.481C361.925 145.481 360.042 145.481 357.614 145.481C357.614 137.354 357.614 129.427 357.613 121Z" fill="#F1621F"/>
<path d="M329.945 88.2933C330.283 88.082 330.553 88.2616 330.878 88.7466C330.639 88.8428 330.287 88.7202 329.945 88.2933Z" fill="#444646"/>
<path d="M248.312 88.9879C248.113 88.6402 248.309 88.3823 248.819 88.0904C248.901 88.3284 248.758 88.6689 248.312 88.9879Z" fill="#434646"/>
</svg>
